<svg width="45" height="30" viewBox="0 0 45 30" fill="none" xmlns="http://www.w3.org/2000/svg">
<path d="M4.60129 20.0756C5.12872 20.4271 5.84396 20.6246 6.58973 20.6246C7.33551 20.6246 8.05075 20.4271 8.57817 20.0756L22.5 10.7944L36.4219 20.0756C36.9524 20.4172 37.6628 20.6062 38.4002 20.6019C39.1377 20.5976 39.8431 20.4004 40.3645 20.0528C40.886 19.7051 41.1818 19.2349 41.1882 18.7432C41.1946 18.2516 40.9111 17.778 40.3988 17.4244L24.4885 6.8175C23.9611 6.46599 23.2458 6.26852 22.5 6.26852C21.7543 6.26852 21.039 6.46599 20.5116 6.8175L4.60129 17.4244C4.07403 17.776 3.77783 18.2528 3.77783 18.75C3.77783 19.2472 4.07403 19.724 4.60129 20.0756Z" fill="#B3B3B3"/>
</svg>
