<svg width="15" height="10" viewBox="0 0 15 10" fill="none" xmlns="http://www.w3.org/2000/svg">
<path d="M7.5 10C7.18095 9.99857 6.86626 9.93401 6.57876 9.81102C6.29125 9.68802 6.03816 9.50966 5.83782 9.28889L0.576348 3.62222C0.2689 3.28108 0.0754276 2.87 0.0179777 2.43585C-0.0394723 2.0017 0.0414109 1.56194 0.251411 1.16667C0.421727 0.82314 0.699665 0.530459 1.05203 0.323581C1.40439 0.116702 1.81629 0.00437006 2.23852 0H12.7615C13.1837 0.00437006 13.5956 0.116702 13.948 0.323581C14.3003 0.530459 14.5783 0.82314 14.7486 1.16667C14.9586 1.56194 15.0395 2.0017 14.982 2.43585C14.9246 2.87 14.7311 3.28108 14.4237 3.62222L9.16218 9.28889C8.96184 9.50966 8.70874 9.68802 8.42124 9.81102C8.13374 9.93401 7.81905 9.99857 7.5 10ZM2.61345 2.22222L7.5 7.57778L12.499 2.22222H2.61345Z" fill="white"/>
</svg>
